<svg width="28" height="25" viewBox="0 0 28 25" fill="none" xmlns="http://www.w3.org/2000/svg">
<path d="M27.6101 0.27352C27.4551 0.139731 27.2666 0.0507517 27.0649 0.0161696C26.8631 -0.0184126 26.6557 0.00271312 26.4651 0.0772705L1.13257 9.99102C0.773553 10.1306 0.469601 10.3831 0.266477 10.7104C0.0633534 11.0377 -0.0279492 11.4221 0.00631548 11.8058C0.0405802 12.1895 0.198558 12.5516 0.456464 12.8378C0.71437 13.1239 1.05825 13.3185 1.43632 13.3923L8.00007 14.681V21.9998C7.99878 22.3984 8.11725 22.7883 8.34012 23.1188C8.563 23.4493 8.88001 23.7053 9.25007 23.8535C9.61956 24.0044 10.0259 24.0406 10.4163 23.9575C10.8066 23.8743 11.1629 23.6756 11.4388 23.3873L14.6038 20.1048L19.6251 24.4998C19.9873 24.8211 20.4546 24.9989 20.9388 24.9998C21.151 24.9996 21.3619 24.9663 21.5638 24.901C21.8938 24.7963 22.1905 24.607 22.4245 24.352C22.6585 24.0969 22.8216 23.785 22.8976 23.4473L27.9713 1.37477C28.0167 1.17571 28.0071 0.968046 27.9434 0.774046C27.8798 0.580046 27.7646 0.407022 27.6101 0.27352ZM20.9413 22.9998L10.6063 13.9373L25.4813 3.27602L20.9413 22.9998Z" fill="currentColor"/>
</svg>
